<?xml version="1.0" encoding="utf-8"?>
<!-- Generator: Adobe Illustrator 23.0.1, SVG Export Plug-In . SVG Version: 6.00 Build 0)  -->
<svg version="1.1" id="Layer_1" xmlns="http://www.w3.org/2000/svg" xmlns:xlink="http://www.w3.org/1999/xlink" x="0px" y="0px"
	 viewBox="0 0 1290 1290" style="enable-background:new 0 0 1290 1290;" xml:space="preserve">
<style type="text/css">
	.st0{fill:url(#SVGID_1_);}
</style>
<linearGradient id="SVGID_1_" gradientUnits="userSpaceOnUse" x1="-495.1104" y1="159.5364" x2="659.9534" y2="652.813">
	<stop  offset="0" style="stop-color:#8CC63F"/>
	<stop  offset="1" style="stop-color:#13562A"/>
</linearGradient>
<path class="st0" d="M1178.7,914.8l-213-123l189.4-68.9c13-4.7,19.7-19.1,14.9-32c-4.7-13-19.1-19.7-32-14.9l-228.8,83.3l-90.7-52.4
	L694,635l124.4-71.8l90.7-52.4l228.8,83.3c13,4.7,27.3-2,32-14.9c4.7-13-2-27.3-14.9-32l-189.4-68.9l213-123
	c12-6.9,16.1-22.2,9.2-34.2c-6.9-12-22.2-16.1-34.2-9.2l-213,123l35-198.5c2.4-13.6-6.7-26.6-20.3-29c-13.6-2.4-26.6,6.7-29,20.3
	l-42.3,239.8l-90.7,52.4L669,591.7V459V354.2l186.5-156.5c10.6-8.9,12-24.6,3.1-35.2c-8.9-10.6-24.6-12-35.2-3.1L669,289V43
	c0-13.8-11.2-25-25-25s-25,11.2-25,25v246L464.6,159.4c-10.6-8.9-26.3-7.5-35.2,3.1c-8.9,10.6-7.5,26.3,3.1,35.2L619,354.2V459
	v132.7l-124.4-71.8l-90.7-52.4l-42.3-239.8c-2.4-13.6-15.4-22.7-29-20.3c-13.6,2.4-22.7,15.4-20.3,29l35,198.5l-213-123
	c-12-6.9-27.2-2.8-34.2,9.2c-6.9,12-2.8,27.2,9.2,34.2l213,123l-189.4,68.9c-13,4.7-19.7,19.1-14.9,32c4.7,13,19.1,19.7,32,14.9
	l228.8-83.3l90.7,52.4L594,635l-124.4,71.8l-90.7,52.4L150,675.9c-13-4.7-27.3,2-32,14.9c-4.7,13,2,27.3,14.9,32l189.4,68.9
	l-213,123c-12,6.9-16.1,22.2-9.2,34.2c6.9,12,22.2,16.1,34.2,9.2l213-123l-35,198.5c-2.4,13.6,6.7,26.6,20.3,29
	c13.6,2.4,26.6-6.7,29-20.3l42.3-239.8l90.7-52.4L619,678.3V833v104.8l-186.5,156.5c-10.6,8.9-12,24.6-3.1,35.2
	c8.9,10.6,24.6,12,35.2,3.1L619,1003v246c0,13.8,11.2,25,25,25s25-11.2,25-25v-246l154.4,129.5c10.6,8.9,26.3,7.5,35.2-3.1
	c8.9-10.6,7.5-26.3-3.1-35.2L669,937.8V833V678.3l124.4,71.8l90.7,52.4l42.3,239.8c2.4,13.6,15.4,22.7,29,20.3
	c13.6-2.4,22.7-15.4,20.3-29l-35-198.5l213,123c12,6.9,27.2,2.8,34.2-9.2C1194.8,937,1190.7,921.8,1178.7,914.8z"/>
</svg>
