<?xml version="1.0" encoding="utf-8"?>
<!-- Generator: Adobe Illustrator 23.0.1, SVG Export Plug-In . SVG Version: 6.00 Build 0)  -->
<svg version="1.1" id="Layer_1" xmlns="http://www.w3.org/2000/svg" xmlns:xlink="http://www.w3.org/1999/xlink" x="0px" y="0px"
	 viewBox="0 0 1154 1267" style="enable-background:new 0 0 1154 1267;" xml:space="preserve">
<style type="text/css">
	.st0{fill:#13562A;}
</style>
<g>
	<path class="st0" d="M978.6,274.8l-120.9,80.1c9.7,8.2,19.1,16.8,28.2,25.8c40.2,40.2,71.7,86.9,93.7,138.9
		c22.7,53.8,34.3,111,34.3,170s-11.5,116.2-34.3,170c-22,52-53.5,98.7-93.7,138.9c-40.2,40.2-86.9,71.7-138.9,93.7
		c-53.8,22.7-111,34.3-170,34.3s-116.2-11.5-170-34.3c-52-22-98.7-53.5-138.9-93.7c-40.2-40.2-71.7-86.9-93.7-138.9
		c-22.7-53.8-34.3-111-34.3-170s11.5-116.2,34.3-170c22-52,53.5-98.7,93.7-138.9C308.2,340.5,355,309,407,287
		c23.4-9.9,47.4-17.7,72-23.3v124.8l20.1-11.6l316.1-183l0.3-0.2L615.8,78.7L479.4,0.3L479,0v120.4l0,0
		C206.8,167-0.4,404.1-0.4,689.6c0,318.9,258.5,577.4,577.4,577.4s577.4-258.5,577.4-577.4C1154.4,526.8,1087,379.7,978.6,274.8z"/>
	<g>
		<polygon class="st0" points="612,311.7 689.1,267.2 815.6,194.1 815.2,193.8 499.1,376.9 		"/>
	</g>
	<g>
		<polygon class="st0" points="479.4,0 479.4,0.3 615.8,78.7 		"/>
	</g>
</g>
</svg>
