<?xml version="1.0" encoding="utf-8"?>
<!-- Generator: Adobe Illustrator 23.0.1, SVG Export Plug-In . SVG Version: 6.00 Build 0)  -->
<svg version="1.1" id="Layer_1" xmlns="http://www.w3.org/2000/svg" xmlns:xlink="http://www.w3.org/1999/xlink" x="0px" y="0px"
	 viewBox="0 0 1282 1282" style="enable-background:new 0 0 1282 1282;" xml:space="preserve">
<style type="text/css">
	.st0{fill:#13562A;}
</style>
<g>
	<path class="st0" d="M821,461c-23.5-23.5-50.9-42-81.4-54.9c-31.5-13.3-65-20.1-99.6-20.1s-68.1,6.8-99.6,20.1
		C509.9,419,482.5,437.4,459,461s-42,50.9-54.9,81.4c-13.3,31.5-20.1,65-20.1,99.6s6.8,68.1,20.1,99.6
		c12.9,30.5,31.4,57.9,54.9,81.4s50.9,42,81.4,54.9c31.5,13.3,65,20.1,99.6,20.1s68.1-6.8,99.6-20.1c30.5-12.9,57.9-31.4,81.4-54.9
		s42-50.9,54.9-81.4c13.3-31.5,20.1-65,20.1-99.6s-6.8-68.1-20.1-99.6C863,511.9,844.6,484.5,821,461z"/>
	<polygon class="st0" points="640,1 520.5,208 759.5,208 	"/>
	<polygon class="st0" points="640,1283 759.5,1076 520.5,1076 	"/>
	<polygon class="st0" points="206,746.5 206,507.5 -1,627 	"/>
	<polygon class="st0" points="1074,507.5 1074,746.5 1281,627 	"/>
</g>
</svg>
