<?xml version="1.0" encoding="utf-8"?>
<!-- Generator: Adobe Illustrator 23.0.1, SVG Export Plug-In . SVG Version: 6.00 Build 0)  -->
<svg version="1.1" id="Layer_1" xmlns="http://www.w3.org/2000/svg" xmlns:xlink="http://www.w3.org/1999/xlink" x="0px" y="0px"
	 viewBox="0 0 1290 1290" style="enable-background:new 0 0 1290 1290;" xml:space="preserve">
<style type="text/css">
	.st0{fill:#13562A;}
</style>
<g>
	<path class="st0" d="M1046.6,286.8l-120.9,80.1c9.7,8.2,19.1,16.8,28.2,25.8c40.2,40.2,71.7,86.9,93.7,138.9
		c22.7,53.8,34.3,111,34.3,170s-11.5,116.2-34.3,170c-22,52-53.5,98.7-93.7,138.9c-40.2,40.2-86.9,71.7-138.9,93.7
		c-53.8,22.7-111,34.3-170,34.3s-116.2-11.5-170-34.3c-52-22-98.7-53.5-138.9-93.7c-40.2-40.2-71.7-86.9-93.7-138.9
		c-22.7-53.8-34.3-111-34.3-170s11.5-116.2,34.3-170c22-52,53.5-98.7,93.7-138.9C376.2,352.5,423,321,475,299
		c23.4-9.9,47.4-17.7,72-23.3v124.8l20.1-11.6l316.1-183l0.3-0.2L683.8,90.7L547.4,12.3L547,12v120.4l0,0
		C274.8,179,67.6,416.1,67.6,701.6c0,318.9,258.5,577.4,577.4,577.4s577.4-258.5,577.4-577.4C1222.4,538.8,1155,391.7,1046.6,286.8z
		"/>
	<g>
		<polygon class="st0" points="680,323.7 757.1,279.2 883.6,206.1 883.2,205.8 567.1,388.9 		"/>
	</g>
	<g>
		<polygon class="st0" points="547.4,12 547.4,12.3 683.8,90.7 		"/>
	</g>
</g>
</svg>
